<?xml version="1.0" encoding="utf-8"?>
<svg xmlns="http://www.w3.org/2000/svg" viewBox="85.46 102.12 304.071 304.104" width="304.071px" height="304.104px"><path class="cls-1" d="M 237.495 102.12 C 175.211 102.12 121.715 139.577 98.225 193.207 L 221.858 193.207 C 241.371 193.207 260.685 203.466 260.685 231.701 C 260.685 256.26 244.145 270.194 223.762 270.194 L 194.859 270.194 C 189.279 270.194 186.672 272.633 186.672 276.476 C 186.672 280.319 189.279 282.925 194.692 282.925 L 258.246 282.925 L 258.78 315.136 L 186.004 315.136 C 163.349 315.136 145.94 299.465 145.94 276.309 C 145.94 251.749 161.444 237.983 184.768 237.983 L 211.933 237.983 C 216.645 237.983 219.953 236.078 219.953 231.534 C 219.953 226.989 216.645 225.452 211.933 225.452 L 88.2 225.452 C 86.429 234.775 85.46 244.365 85.46 254.189 C 85.46 338.159 153.525 406.224 237.495 406.224 C 321.466 406.224 389.531 338.159 389.531 254.189 C 389.531 170.185 321.466 102.12 237.495 102.12 Z M 310.84 308.42 C 310.84 312.096 307.833 315.103 304.157 315.103 L 285.278 315.103 C 281.602 315.103 278.595 312.096 278.595 308.42 L 278.595 289.541 C 278.595 285.865 281.602 282.858 285.278 282.858 L 304.157 282.858 C 307.833 282.858 310.84 285.865 310.84 289.541 L 310.84 308.42 Z" style="fill: rgb(30, 30, 30); stroke-width: 3.341; paint-order: fill;" id="object-0"/></svg>